# xmcd CD database file
#
# Track frame offsets:
#	150
#	39903
#	58373
#	84038
#	112945
#	131880
#	152185
#	168975
#	188643
#	215240
#	249408
#	269320
#	298523
#	321718
#
# Disc length: 4616 seconds
#
# Revision: 2
# Processed by: cddbd v1.5.1PL0 Copyright (c) Steve Scherf et al.
# Submitted via: CDex 1.51
#
DISCID=ce12060e
DTITLE=Various Artist - Cho Thanh Pho Mat Ten
DYEAR=1991
DGENRE=Vietnamese
TTITLE0=Khanh Ly - Dem chon dau vuot bien
TTITLE1=Tuan Anh - Saogon oi vinh biet
TTITLE2=Giao Linh - Huong ca vo tan
TTITLE3=Elvis Phuong - Khi xa Saigon
TTITLE4=Huong Lan - Con cuoc VN
TTITLE5=Khanh Ly - Saigon niem nho khong ten
TTITLE6=Giao Linh - Loi nguoi ra di
TTITLE7=Ngoc Minh - Anh giai phong toi
TTITLE8=Khanh Ly C D An - Chan vit o phuong nam
TTITLE9=Giao Linh - Ba me phu sa
TTITLE10=Anh Quy - Khoc mot giong song
TTITLE11=Khanh Ly - Cho thanh pho mat ten
TTITLE12=Bang Chau - Que huong ngay em lon
TTITLE13=Elvis Phuong - Nguoi di tan buon
EXTD=YEAR: 1991
EXTT0=
EXTT1=
EXTT2=
EXTT3=
EXTT4=
EXTT5=
EXTT6=
EXTT7=
EXTT8=
EXTT9=
EXTT10=
EXTT11=
EXTT12=
EXTT13=
PLAYORDER=
